<svg version="1.2" xmlns="http://www.w3.org/2000/svg" viewBox="0 0 518 470" width="518" height="470">
	<title>Mosque</title>
	<style>
		.s0 {
			fill-opacity: .5;
			fill: #1D2535
		}
	</style>
	<path id="Mosque" fill-rule="evenodd" class="s0"
		d="m7.6 220.9v-1.2c-3.6-14.1-5.8-35.2 3.7-56.6 5.2-12 15.9-23.5 28-33.4 11.8-9.7 24.9-17.9 35.5-24.1-0.5-1.5-0.9-3.7-1.1-6-0.1-2.9 0.3-6.1 1.7-9.3 1.4-3.4 4.6-6.4 7.9-9.1 3.1-2.4 6.5-4.4 9-5.8l0.3-5.6c-0.7-0.6-1.3-1.2-1.7-2q-0.7-1.4-0.7-3c0-1.2 0.3-2.3 0.9-3.2 0.5-0.8 1.1-1.6 2-2.1l0.2-4.8c-0.6-0.4-1-1-1.3-1.5-0.4-0.8-0.6-1.6-0.6-2.4 0-1 0.2-1.9 0.7-2.6 0.4-0.7 0.9-1.2 1.5-1.7l0.3-5.1 1.7-39.1c0-0.5 0.5-0.9 0.9-0.8 0.5 0 0.9 0.4 0.9 0.8l1.8 39.1 0.2 5.1q0.9 0.7 1.5 1.7c0.4 0.7 0.7 1.6 0.7 2.6q0 1.3-0.6 2.4-0.4 0.9-1.2 1.5l0.2 4.8c0.8 0.5 1.5 1.3 2 2.1 0.5 0.9 0.8 2 0.8 3.2 0 1.1-0.2 2.1-0.7 3-0.4 0.8-1 1.4-1.7 2l0.3 5.6c2.5 1.4 5.9 3.4 9 5.8 3.4 2.7 6.5 5.7 7.9 9.1h0.1c1.4 3.3 1.7 6.5 1.6 9.3-0.1 2.3-0.6 4.5-1.1 6 10.6 6.2 23.7 14.4 35.5 24.1 12.1 9.9 22.8 21.4 28.1 33.4 8.7 19.7 7.4 39.2 4.4 53.2 2.4-2.6 5.1-5.2 7.9-7.5 6.6-5.5 14-10.1 19.9-13.5-0.2-0.9-0.5-2.1-0.6-3.4 0-1.6 0.1-3.4 0.9-5.2 0.9-1.9 2.6-3.6 4.5-5.1 1.8-1.3 3.6-2.5 5-3.3l0.2-3.1c-0.4-0.3-0.7-0.7-1-1.1-0.2-0.5-0.4-1.1-0.4-1.7 0-0.7 0.2-1.3 0.5-1.8 0.3-0.5 0.7-0.9 1.2-1.1v-2.7c-0.2-0.3-0.5-0.6-0.6-0.9-0.2-0.4-0.4-0.9-0.4-1.4q0-0.8 0.4-1.4c0.2-0.4 0.5-0.7 0.9-0.9l0.1-2.9 1-21.9c0-0.3 0.2-0.5 0.5-0.5 0.2 0 0.5 0.2 0.5 0.5l1 21.9 0.1 2.9q0.5 0.3 0.9 0.9c0.2 0.4 0.4 0.9 0.4 1.4q0 0.8-0.4 1.4-0.3 0.5-0.7 0.9l0.1 2.7c0.5 0.2 0.9 0.6 1.1 1.1 0.4 0.5 0.5 1.1 0.5 1.8q0 0.9-0.4 1.7c-0.2 0.4-0.5 0.8-0.9 1.1l0.1 3.1c1.4 0.8 3.3 2 5.1 3.3 1.9 1.5 3.6 3.2 4.4 5.1 0.8 1.8 1 3.6 0.9 5.2 0 1.3-0.3 2.5-0.6 3.4 6 3.4 13.3 8 19.9 13.5 6.8 5.5 12.8 11.9 15.7 18.6q1.7 3.9 2.6 7.7l0.3-51h-2c-2.3 0-4.2-1.9-4.2-4.3 0-1.9 1.4-3.5 3.2-4v-19.8h-1.7c-1.2 0-2.2-0.9-2.2-2.1 0-1.2 1-2.2 2.2-2.2h1.8c-1.2-3.5-2.7-10.2 0.3-17.1 1.4-3.2 4.3-6.3 7.5-8.9 3.1-2.6 6.6-4.8 9.5-6.5-0.2-0.4-0.3-1-0.3-1.6 0-0.7 0.1-1.6 0.4-2.5 0.4-0.8 1.2-1.7 2.2-2.4 0.8-0.6 1.7-1.2 2.3-1.5l0.1-1.5q-0.2-0.2-0.4-0.6c-0.1-0.2-0.2-0.5-0.2-0.8 0-0.3 0.1-0.6 0.2-0.8 0.1-0.2 0.3-0.4 0.5-0.6l0.1-1.2q-0.2-0.2-0.3-0.5c-0.1-0.2-0.2-0.4-0.2-0.6q0-0.4 0.2-0.7 0.1-0.3 0.4-0.4l0.1-1.4 0.4-10.5c0-0.1 0.1-0.2 0.3-0.2 0.1 0 0.2 0.1 0.2 0.2l0.5 10.5v1.4c0.2 0.1 0.3 0.2 0.4 0.4 0.1 0.2 0.2 0.4 0.2 0.7 0 0.2 0 0.4-0.1 0.6q-0.2 0.3-0.4 0.5l0.1 1.2q0.3 0.3 0.5 0.6c0.2 0.2 0.2 0.5 0.2 0.8 0 0.3 0 0.6-0.1 0.8-0.2 0.3-0.3 0.4-0.5 0.6l0.1 1.5c0.6 0.3 1.5 0.9 2.4 1.5 0.9 0.7 1.7 1.6 2.1 2.4v0.1c0.4 0.8 0.5 1.7 0.4 2.4 0 0.6-0.1 1.2-0.2 1.6 2.8 1.7 6.3 3.9 9.4 6.5 3.3 2.6 6.1 5.7 7.5 8.9 3.1 6.9 1.6 13.6 0.4 17.1h2.7c1.2 0 2.2 1 2.2 2.2 0 1.2-1 2.1-2.2 2.1h-1.7v4.6c0 0.5 0 1.1 0 1.6v0.5 2.2 10.9c1.8 0.5 3.2 2.1 3.2 4 0 2.4-1.9 4.3-4.2 4.3h-2l0.4 65.7 0.1 6.2c0.6 0.1 1.2 0.5 1.7 1.2 0.4 0.8 0.8 1.7 0.9 2.5 0.1-0.8 0.4-1.7 1-2.5 0.5-0.8 1.2-1.3 2-1.3 0.7 0 1.4 0.5 1.9 1.3 0.5 0.8 0.9 1.7 1 2.5 0.1-0.8 0.4-1.7 1-2.5 0.3-0.6 0.8-0.9 1.3-1.1-0.4-4.1-0.3-9.1 2-14.2 1.7-3.9 5.1-7.6 9-10.7 3.8-3.2 8.1-5.9 11.5-7.9-0.1-0.5-0.3-1.1-0.3-1.9 0-0.9 0.1-2 0.5-3.1 0.5-1 1.5-2 2.6-2.9 1-0.8 2.1-1.4 2.9-1.9l0.1-1.8q-0.3-0.2-0.6-0.6-0.2-0.4-0.2-1c0-0.4 0.1-0.7 0.3-1 0.2-0.3 0.4-0.5 0.6-0.7l0.1-1.6c-0.2-0.1-0.3-0.3-0.4-0.4q-0.2-0.4-0.2-0.8 0-0.5 0.2-0.9c0.1-0.2 0.3-0.4 0.5-0.5l0.1-1.7 0.6-12.6c0-0.2 0.1-0.3 0.3-0.3 0.1 0 0.3 0.1 0.3 0.3l0.5 12.6 0.1 1.7q0.3 0.2 0.5 0.5 0.2 0.4 0.2 0.9c0 0.3 0 0.5-0.2 0.8q-0.1 0.2-0.4 0.4l0.1 1.6c0.2 0.2 0.5 0.4 0.6 0.7q0.3 0.4 0.3 1 0 0.6-0.2 1-0.2 0.4-0.5 0.6v1.8c0.8 0.5 1.9 1.1 2.9 1.9 1.1 0.9 2.1 1.9 2.6 2.9v0.1c0.5 1 0.6 2.1 0.5 3 0 0.8-0.2 1.4-0.3 1.9 3.4 2 7.7 4.7 11.5 7.9 3.9 3.1 7.4 6.8 9.1 10.7 1.7 3.9 2.2 7.7 2.1 11.2l4.3-0.2v-2.1l-0.1-14.6-0.1-12.9-4.4-3.2v-15.8h6.5l0.1-15.8-3.2-2.3v-9.5h3.7l0.1-13.5 4.7-5.1 1.7-10.4c0-0.3 0.1-1.5 0.2-0.6l0.2 1.2 1.4 10 4.3 5v13.4h3.3v9.5l-3.3 2.2v15.9h6.1 0.4v15.8l-4.3 3.4v29.6h5.4v17.6l-5 4v14.2c5.8-4.1 11.6-7.7 16.7-10.6-0.3-1.3-0.7-3-0.8-4.8-0.1-2.2 0.2-4.7 1.2-7.2v-0.1c1.2-2.6 3.7-5 6.3-7.1 2.5-1.9 5.1-3.4 7-4.5l0.2-4.4c-0.5-0.4-1-1-1.3-1.6-0.3-0.7-0.6-1.5-0.6-2.4 0-0.9 0.3-1.8 0.8-2.4 0.3-0.7 0.9-1.3 1.5-1.6l0.1-3.8c-0.3-0.4-0.7-0.8-0.9-1.2-0.3-0.6-0.5-1.2-0.5-1.9q0-1.1 0.6-2c0.3-0.6 0.7-1 1.2-1.3l0.1-4.1 1.4-30.5c0-0.4 0.3-0.7 0.7-0.7 0.4 0 0.7 0.3 0.7 0.7l1.4 30.5 0.2 4.1c0.4 0.3 0.9 0.7 1.2 1.3 0.3 0.6 0.5 1.2 0.5 2q0 1-0.4 1.9c-0.3 0.4-0.7 0.8-1 1.2l0.1 3.8c0.6 0.3 1.2 0.9 1.6 1.6 0.4 0.6 0.7 1.5 0.7 2.4q0 1.3-0.6 2.4c-0.3 0.6-0.8 1.2-1.3 1.6l0.2 4.4c2 1.1 4.6 2.6 7 4.5 2.7 2.1 5.1 4.5 6.2 7.1 1.2 2.6 1.5 5.1 1.4 7.3-0.2 1.8-0.6 3.5-0.9 4.8 8.3 4.7 18.5 11.2 27.8 18.8 9.5 7.8 17.8 16.7 22 26.1 3.2 7.3 5.1 20 5.1 20 0 0-115.7 124.8-319.9 64.4-151.3-56-188.3-183.6-188.3-183.6 0 0-3.6-7.4-0.5-3.1zm305.7-52.9c0 0-0.2-0.7 0.4-1.4 0.6-0.8 0.4-1.4 0.1-2.1-1.3-3.8 3.1-4.6 5.6-6.4 1.5 1.4 1.1 3.6 0.1 6.4-0.3 0.7-0.5 1.3 0.1 2.1 0.6 0.7 0.5 1.4 0.5 1.4v7.6h-6.8zm-23.7 0c0 0-0.1-0.6 0.5-1.4 0.6-0.7 0.4-1.3 0.1-2.1-1.8-4.9 6.2-4.7 7.2-8.4h0.1c0.9 3.7 8.9 3.5 7.2 8.4-0.3 0.8-0.5 1.4 0 2.1 0.6 0.8 0.5 1.4 0.5 1.4v7.7h-15.6zm-14.8 7.7v-7.7c0 0-0.1-0.6 0.5-1.4 0.6-0.7 0.4-1.4 0.1-2.1-0.9-2.7-1.3-4.9 0.1-6.3 2.5 1.8 6.9 2.6 5.5 6.3-0.2 0.7-0.5 1.4 0.1 2.1 0.6 0.8 0.5 1.4 0.5 1.4v7.7z" />
</svg>